<svg id="Layer_1" data-name="Layer 1" xmlns="http://www.w3.org/2000/svg" viewBox="0 0 73.43 23.51"><defs><style>.cls-1{fill:#181818;}</style></defs><path class="cls-1" d="M29,22.17c-.05.45-.12.79-.72.89a17.11,17.11,0,0,1-5.84.2,3.78,3.78,0,0,1-3.31-3.18,38,38,0,0,1-.24-7.54c0-1.09-.35-1.24-1.39-1.57-2.07-.66-4-.17-6-.05-.44,0-.61-.2-.84-.52a3,3,0,0,0-3.43-1,1.28,1.28,0,0,0-.94,1.13,1,1,0,0,0,1,1.07c1.06.23,2.12.39,3.19.55A17.72,17.72,0,0,1,14,13a4.71,4.71,0,0,1,3.43,4.07,5,5,0,0,1-2.66,5,7.64,7.64,0,0,1-3,1A19.41,19.41,0,0,1,4,22.77,5.64,5.64,0,0,1,.19,19.43c-.32-.75-.33-1.17.67-1.22,1.52-.07,3-.24,4.54-.41a.92.92,0,0,1,1,.54,3.24,3.24,0,0,0,4.18,1.23,1.43,1.43,0,0,0,1.05-1.32A1.29,1.29,0,0,0,10.51,17c-1.55-.35-3.13-.63-4.69-1a12.3,12.3,0,0,1-2.08-.57A4.51,4.51,0,0,1,.61,11.61a4.45,4.45,0,0,1,2.3-4.53,7.32,7.32,0,0,1,2.35-.87A21.31,21.31,0,0,1,11.12,6a6.13,6.13,0,0,1,5.1,2.86c.42-.12.25-.41.26-.61,0-1.63,0-1.67,1.72-1.84.67-.06.71-.47.62-.9-.39-1.81.55-2.65,2.1-3.26C22.32,1.7,23.62.9,25.19.1c0,1.92,0,3.65,0,5.38,0,.63.12.95.85.95s2-.41,2.51.22.18,1.59.24,2.42c.82,1.32.43,2.27-1,2.49-1.79.26-2,.48-2,2.29a25.39,25.39,0,0,0,0,2.76c.1,1.09.5,1.47,1.58,1.58A1.76,1.76,0,0,1,29,20.64,2.75,2.75,0,0,0,29,22.17Z"/><path class="cls-1" d="M30,9.31a8.91,8.91,0,0,1,7.24-3.08,5.19,5.19,0,0,1,4,1.52c.06,0,.18-.08.17-.11C41.21,6.33,41.85,6,43,6.15a30.87,30.87,0,0,0,3.6,0c.63,0,.84.2.84.82q0,7.8.05,15.6c0,.58-.13.88-.79.88-1.2,0-2.4.06-3.59,0a4.59,4.59,0,0,1-2.69-.91,2.81,2.81,0,0,1-.5-4.41c.07-.09.19-.2.27-.19,1.91.33,1-1.2.84-1.62a11.63,11.63,0,0,1-.64-2.76A7.79,7.79,0,0,0,39,10.25c-.51-.68-.87-.94-1.44,0a6.78,6.78,0,0,0-1.35,3.15c0,1.32-.9,2.37-.95,3.63,0,.49-.37,1.47.9,1,.39-.15,1.43,1.86,1.35,2.55a2.38,2.38,0,0,1-2.52,2.21,6.53,6.53,0,0,1-3.27-1,6.37,6.37,0,0,1-3-2.77,8,8,0,0,1-1-4.64,4.5,4.5,0,0,1,1.06-3.31C29.22,10.57,29,9.56,30,9.31Z"/><path class="cls-1" d="M63.38,14.7c0-.95-.05-1.92,0-2.87s-.16-1.23-1-1.08c-1,.18-1.49-.21-1.33-1.29a11.61,11.61,0,0,0,0-1.32,4.68,4.68,0,0,1,.11-1.77c.31-.62,1.08-.25,1.64-.29s.66-.42.58-.82c-.4-1.84.54-2.74,2.14-3.36A21,21,0,0,0,68.71.27c1-.55,1.12-.24,1.08.71-.06,1.4,0,2.8,0,4.2,0,.69.23.86.89.91.84.06,2-.48,2.45.3.38.61.12,1.62.13,2.46,0,1.9,0,1.88-1.89,1.9s-1.55-.22-1.57,1.61c0,1.44,0,2.88,0,4.32,0,1.71.49,2.16,2.11,1.75,1.06-.27,1.35,0,1.3,1a7.89,7.89,0,0,0,.1,1.07c.3,2.18.3,2.19-1.92,2.43a17.39,17.39,0,0,1-4,0,4,4,0,0,1-3.86-3.74A31.43,31.43,0,0,1,63.38,14.7Z"/><path class="cls-1" d="M55.06,8.48,56,7.24a3.65,3.65,0,0,1,3.07-1.32c.73,0,1,.28.94,1,0,1.16,0,2.32,0,3.47,0,.53.06.88-.76.67-2-.51-3,.23-3.54,2.32a29.22,29.22,0,0,0-.36,6.8c0,2.78,0,2.78-2.83,2.78-.92,0-1.84,0-2.75,0-.6,0-.86-.15-.86-.8q0-7.55,0-15.09c0-.7.34-.78.89-.77,1.39,0,2.79,0,4.19,0,.77,0,1,.3.93,1A1.6,1.6,0,0,0,55.06,8.48Z"/><path class="cls-1" d="M39.25,14a1,1,0,0,1-1.06,1,.9.9,0,0,1-.95-1,.92.92,0,0,1,1-.92C38.91,13.05,39.16,13.47,39.25,14Z"/></svg>